<svg id="Capa_1" enable-background="new 0 0 512 512" height="512" viewBox="0 0 512 512" width="512" xmlns="http://www.w3.org/2000/svg"><g><path d="m123.714 233.429h-32.286c-50.494 0-91.428-40.934-91.428-91.429 0-30.297 24.56-54.857 54.857-54.857 30.297 0 54.857 24.56 54.857 54.857z" fill="#ffb19e"/><path d="m388.286 233.429h32.286c50.494 0 91.428-40.934 91.428-91.429 0-30.297-24.56-54.857-54.857-54.857-30.297 0-54.857 24.56-54.857 54.857z" fill="#f07f73"/><path d="m512 501.29v10.71h-103.29l-15-14-15 14h-245.42l-15-14-15 14h-103.29v-10.71c0-95.08 77.07-172.15 172.14-172.15h167.72c95.07 0 172.14 77.07 172.14 172.15z" fill="#ffb19e"/><path d="m512 501.29v10.71h-103.29l-15-14-15 14h-122.71v-182.86h83.86c95.07 0 172.14 77.07 172.14 172.15z" fill="#f07f73"/><path d="m402.29 146.29v73.14c0 80.79-65.5 146.28-146.29 146.28s-146.29-65.49-146.29-146.28v-73.14c0-80.8 65.5-146.29 146.29-146.29 40.4 0 76.97 16.37 103.44 42.84 26.48 26.48 42.85 63.05 42.85 103.45z" fill="#fccbc3"/><path d="m402.29 146.29v73.14c0 80.79-65.5 146.28-146.29 146.28v-365.71c40.4 0 76.97 16.37 103.44 42.84 26.48 26.48 42.85 63.05 42.85 103.45z" fill="#ffb19e"/><path d="m292.57 128.83c0 20.2-16.37 36.58-36.57 36.58s-36.57-16.38-36.57-36.58c0-20.19 16.37-36.57 36.57-36.57s36.57 16.38 36.57 36.57z" fill="#f2f2f2"/><path d="m292.57 128.83c0 20.2-16.37 36.58-36.57 36.58v-73.15c20.2 0 36.57 16.38 36.57 36.57z" fill="#e7e7f2"/><path d="m176.96 248.992h36.056v29.999h-36.056z" fill="#f2f2f2" transform="matrix(.601 -.799 .799 .601 -133.195 261.206)"/><path d="m302.013 245.963h29.999v36.056h-29.999z" fill="#e7e7f2" transform="matrix(.799 -.601 .601 .799 -95.016 243.479)"/><path d="m344.61 239.86c-1.6 1.61-39.87 39.47-88.61 39.47s-87.01-37.86-88.61-39.47l21.25-21.17c.28.28 31.25 30.64 67.36 30.64 35.84 0 67.05-30.34 67.36-30.64z" fill="#ffb19e"/><path d="m344.61 239.86c-1.6 1.61-39.87 39.47-88.61 39.47v-30c35.84 0 67.05-30.34 67.36-30.64z" fill="#f07f73"/><path d="m103.286 428.143h30v83.857h-30z" fill="#fccbc3"/><path d="m378.714 428.143h30v83.857h-30z" fill="#ffb19e"/><path d="m334.53 404.67s-21.96 1.3-41.98-7.85c.01.6.02 1.2.02 1.8 0 40.02-36.57 72.47-36.57 72.47s-36.57-32.45-36.57-72.47c0-.6.01-1.2.02-1.8-20.02 9.15-41.98 7.85-41.98 7.85s-2.23-37.39 19.45-59.08c21.69-21.68 43.6-7.63 59.08-7.63s37.39-14.05 59.08 7.63c21.68 21.69 19.45 59.08 19.45 59.08z" fill="#bd6100"/><path d="m334.53 404.67s-21.96 1.3-41.98-7.85c.01.6.02 1.2.02 1.8 0 40.02-36.57 72.47-36.57 72.47v-133.13c15.48 0 37.39-14.05 59.08 7.63 21.68 21.69 19.45 59.08 19.45 59.08z" fill="#703700"/></g></svg>