<svg id="Capa_1" enable-background="new 0 0 417.536 417.536" height="512" viewBox="0 0 417.536 417.536" width="512" xmlns="http://www.w3.org/2000/svg"><g><g><path d="m297.359 417.536h-177.199l22.898-224.991h131.403z" fill="#ebf0f3"/><path d="m287.033 182.07-68.295-76.477c-4.873-5.4-13.2-5.827-18.602-.955-.335.301-.653.62-.955.955l-68.694 76.477c-4.823 5.409-4.347 13.703 1.062 18.524 2.451 2.185 5.632 3.372 8.915 3.326h136.789c7.246-.009 13.112-5.89 13.104-13.136-.002-3.214-1.186-6.316-3.324-8.714z" fill="#fe7058"/><path d="m277.753 143.907c1.029.786 2.501.589 3.287-.441.001-.003.004-.006.006-.007l85.905-110.6c.799-1.019.621-2.494-.398-3.292 0 0 0 0-.001 0l-35.869-27.839c-1.019-.799-2.494-.621-3.292.398v.001l-77.225 99.374-8.68 11.225-33.126 42.654-40.807-31.429 26.241-34.222c.793-1.049.593-2.541-.449-3.342l-110.45-85.906c-1.029-.786-2.501-.589-3.287.441-.001.003-.004.006-.006.007l-27.837 35.82c-.803.979-.661 2.426.319 3.229.026.022.053.043.081.063l99.424 77.225 11.175 8.68 42.703 33.175-2.693 3.442-28.934 37.365-33.973-26.391c-1.019-.799-2.494-.621-3.292.398v.001l-86.005 110.6c-.777 1.043-.602 2.513.399 3.342l35.868 27.837c1.029.786 2.501.589 3.287-.441.001-.003.004-.006.006-.007l77.225-99.424 8.68-11.175 30.78-39.91 2.345-3.043 3.492 2.693 37.315 29.383-26.241 33.873c-.786 1.029-.589 2.501.441 3.287.003.001.006.004.007.006l110.6 85.905c1.019.799 2.494.621 3.292-.398 0 0 0 0 0-.001l27.837-35.819c.805-1.035.627-2.526-.399-3.342l-99.574-77.225-11.175-8.68-39.91-30.78-3.043-2.345 31.878-40.807zm-19.107-20.953 4.339-5.588 8.231 6.585-4.341 5.588zm75.381-79.82-4.989 6.385-8.381-6.485 4.989-6.385zm-5.488-9.977 4.989-6.385 8.331 6.485-4.989 6.335zm-2.345 20.254-4.989 6.385-8.381-6.485 4.989-6.385zm-7.832 9.977-4.989 6.385-8.381-6.485 4.989-6.335zm-7.833 9.977-4.989 6.335-8.331-6.485 4.989-6.335zm-7.881 9.979-4.989 6.385-8.331-6.485 4.989-6.385zm-7.833 9.977-4.989 6.385-8.331-6.485 4.989-6.385zm-7.832 9.977-4.989 6.385-8.381-6.135 4.989-6.385zm-7.833 9.977-4.989 6.335-8.331-6.485 4.989-6.335zm-.548 25.643-8.181-6.335 4.389-5.588 8.181 6.335zm7.233-9.329-8.131-6.335 4.989-6.385 8.181 6.385zm7.883-9.978-8.181-6.335 4.989-6.385 8.181 6.335zm7.831-9.978-7.981-6.785 4.989-6.385 8.181 6.335zm7.833-9.977-8.181-6.385 4.989-6.335 8.181 6.335zm7.832-9.977-8.181-6.335 4.989-6.335 8.181 6.335zm7.833-9.977-8.031-7.134 4.989-6.385 8.181 6.335zm7.831-9.977-8.181-6.335 4.989-6.385 8.181 6.335zm7.833-9.979-8.181-6.335 4.989-6.385 8.181 6.335zm7.832-9.977-8.181-6.335 4.989-6.335 8.081 5.188zm13.071-16.861-4.989 6.785-8.181-7.484 4.989-6.785zm-11.874-9.23-5.088 5.488-8.381-6.485 5.288-6.735zm-20.204-15.715 8.131 6.385-5.238 6.735-8.181-6.335zm-8.031 9.38 8.181 6.335-4.989 6.385-8.131-6.385zm-7.833 9.977 8.181 6.335-4.989 6.385-8.331-6.235zm-7.832 9.977 8.181 6.335-4.989 6.385-8.131-5.887zm-7.833 9.978 8.181 6.834-4.989 6.335-8.131-6.335zm-7.832 9.978 8.381 6.834-4.989 6.385-8.331-6.385zm-7.833 9.977 8.181 6.834-4.989 6.385-8.131-6.385zm-7.831 9.977 8.181 6.834-4.989 6.385-8.131-6.385zm-7.833 9.977 8.181 6.385-4.989 6.335-8.131-6.335zm-7.832 9.978 8.181 6.335-4.989 6.335-8.131-6.335zm-7.831 9.977 8.181 6.335-4.389 5.638-8.181-5.138zm-77.974 1.846-5.588-4.389 6.385-8.381 5.588 4.339zm-79.82-75.38 6.335 4.989-6.435 8.331-6.385-4.989zm-10.226 5.538-6.335-4.989 6.435-8.381 6.385 4.989zm20.303 2.395 6.385 4.989-6.485 8.331-6.385-4.989zm9.977 7.832 6.385 4.989-6.485 8.331-6.385-4.99zm9.979 7.833 6.385 4.989-6.485 8.331-6.335-4.989zm9.977 7.831 6.335 4.989-6.485 8.331-6.335-4.989zm9.977 7.833 6.385 4.989-6.485 8.331-6.385-4.989zm9.977 7.832 6.385 4.989-5.688 8.331-6.385-4.989zm9.977 7.833 6.385 4.989-5.688 8.131-6.385-4.989zm24.944.298-6.335 8.181-5.638-4.389 6.385-8.131zm-9.329-7.232-6.335 8.181-6.385-4.989 6.335-8.131zm-9.977-7.834-6.335 8.131-6.385-4.989 6.335-8.131zm-9.977-7.831-5.937 8.131-6.335-4.989 6.335-8.181zm-9.977-7.833-6.037 7.983-6.385-4.989 6.385-8.181zm-9.929-7.982-6.335 8.131-6.385-4.989 6.335-8.181zm-9.977-7.833-6.335 8.131-6.385-4.989 6.335-8.181zm-9.977-7.881-6.385 8.181-6.335-4.989 6.335-8.181zm-9.977-7.832-6.335 8.181-6.335-4.989 6.335-8.181zm-9.977-7.833-6.335 8.181-6.385-4.989 6.385-8.181zm-16.863-13.069 6.785 5.238-6.635 8.281-6.785-4.989zm-9.228 11.872 6.785 5.288-6.485 8.331-6.785-5.288zm-15.715 20.254 6.335-8.181 6.785 4.989-6.335 8.181zm10.526 8.131 6.335-8.181 6.335 4.989-6.335 8.181zm9.978 7.833 6.335-8.181 6.385 4.989-6.385 8.131zm9.977 7.832 6.335-8.181 6.385 4.989-6.385 8.131zm9.977 7.833 6.335-8.181 6.385 4.989-6.385 8.131zm9.978 7.832 6.335-8.181 6.335 4.989-6.335 8.131zm9.977 7.833 6.335-8.131 6.385 4.989-6.135 8.081zm9.977 7.831 6.335-8.131 6.385 4.989-6.335 8.131zm9.978 7.833 6.335-8.131 6.385 4.989-5.887 8.131zm9.977 7.832 6.385-8.131 6.335 4.989-6.335 8.181zm9.978 7.833 6.335-8.131 5.588 4.339-5.588 8.181zm1.347 77.972-4.339 5.638-8.231-6.235 4.339-5.638zm-75.379 79.82 4.989-6.385 8.381 6.485-4.989 6.335zm5.486 9.977-4.989 6.385-8.331-6.485 4.989-6.385zm2.346-20.304 4.989-6.335 8.381 6.485-4.989 6.335zm7.831-9.977 4.989-6.385 8.381 6.485-4.989 6.385zm7.833-9.977 4.989-6.385 8.331 6.485-4.989 6.385zm7.832-9.977 4.989-6.385 8.331 6.485-4.989 6.385zm7.883-9.979 4.989-6.335 8.381 6.086-4.989 6.335zm7.831-9.977 4.989-6.385 8.381 6.135-4.989 6.385zm7.833-9.977 4.989-6.385 8.381 6.135-4.989 6.385zm.548-25.194 8.181 6.335-4.389 5.638-8.331-6.485zm-7.232 9.33 8.131 6.335-4.989 6.385-8.181-6.335zm-7.883 9.977 8.181 6.385-4.989 6.335-8.031-6.385zm-7.832 9.977 7.981 6.435-4.989 6.385-8.181-6.385zm-7.833 9.978 8.181 6.335-4.989 6.385-8.181-6.335zm-7.831 9.978 8.181 6.335-4.989 6.385-8.181-6.335zm-7.834 9.977 8.181 6.385-4.989 6.335-8.181-6.335zm-7.831 9.977 8.181 6.335-4.989 6.335-8.281-5.787zm-7.833 9.978 8.181 6.335-4.989 6.386-8.181-6.385zm-7.732 10.625 8.181 6.335-4.989 6.385-8.181-6.235zm-13.319 16.963 5.238-6.984 8.081 6.535-4.989 6.785zm11.873 9.228 4.989-6.785 8.381 6.485-5.288 6.785zm19.954 15.714-8.131-6.335 4.989-6.785 8.68 6.135zm8.181-10.476-7.931-6.485 4.989-6.385 8.131 6.385zm7.833-9.977-7.931-6.485 4.989-6.335 8.331 6.335zm7.832-9.977-7.931-6.485 4.989-6.385 8.131 6.385zm7.833-9.977-7.931-6.485 4.989-6.385 8.131 6.385zm7.831-9.979-8.131-6.785 4.989-6.385 8.181 6.335zm7.833-9.977-8.181-6.385 4.989-6.335 8.181 6.335zm7.832-9.977-8.181-6.335 4.989-6.385 8.181 6.385zm7.833-9.977-8.181-6.335 4.989-6.385 8.131 6.335zm7.831-9.978-8.181-6.335 4.989-6.385 8.63 5.438zm7.833-9.978-8.181-6.385 4.389-5.588 8.431 5.488zm77.973-.797 5.588 4.341-6.135 7.384-5.588-4.389zm79.819 75.379-6.335-4.989 6.435-8.331 6.385 4.989zm9.979-5.438 6.335 4.989-6.435 8.331-6.385-4.989zm-20.305-2.394-6.385-4.989 6.485-8.331 6.385 4.989zm-9.977-7.833-6.385-4.989 6.485-8.331 6.385 4.989zm-9.978-7.831-6.385-4.989 6.485-8.381 6.335 4.989zm-9.977-7.833-6.335-4.989 6.485-8.381 6.335 4.989zm-9.978-7.832-6.385-4.989 6.485-8.381 6.385 4.989zm-9.977-7.833-6.385-4.989 6.435-9.13 6.385 4.989zm-9.977-7.832-6.385-4.989 6.185-9.329 6.385 4.989zm-25.144-1.296 6.335-8.181 5.638 4.341-6.385 8.181zm9.329 7.232 6.335-8.181 6.385 4.989-6.335 8.181zm9.977 7.833 6.335-8.181 6.385 4.989-6.185 8.081zm9.979 7.832 6.635-7.931 6.335 4.989-6.335 7.882zm9.977 7.833 6.335-8.181 6.385 4.989-6.385 8.181zm9.977 7.831 6.335-8.181 6.385 4.989-6.335 8.181zm9.977 7.833 6.335-8.181 6.385 4.989-6.335 8.181zm9.977 7.832 6.385-8.181 6.335 4.989-6.335 8.181zm9.979 7.833 6.335-8.181 6.335 4.989-6.335 8.131zm9.977 7.832 6.335-8.181 6.385 4.989-5.438 8.131zm16.861 13.119-6.785-5.288 6.335-8.181 7.733 5.288zm9.23-11.923-6.785-4.989 6.485-8.331 6.785 4.989zm15.714-19.954-6.335 8.181-6.785-5.288 6.335-8.181zm-10.526-8.131-6.335 8.131-6.335-4.989 6.335-8.181zm-9.977-7.833-5.688 7.882-6.385-4.989 6.385-8.131zm-9.978-7.881-5.688 7.931-6.385-4.989 6.385-8.131zm-9.978-7.833-5.688 7.931-6.385-4.989 6.385-8.131zm-9.977-7.832-5.688 7.931-6.335-4.989 6.335-8.131zm-9.977-7.833-5.688 7.931-6.385-4.989 6.385-8.131zm-9.978-7.832-6.335 8.181-6.385-4.989 6.335-8.181zm-9.977-7.833-6.335 8.181-6.385-4.989 6.335-8.181zm-9.977-7.831-6.385 8.181-6.335-4.989 6.435-8.431zm-9.978-7.833-6.335 8.181-5.588-4.389 6.235-8.381z" fill="#3a556a"/><path d="m207.763 138.918c-11.021 0-19.954 8.934-19.954 19.954 0 11.021 8.934 19.954 19.954 19.954s19.954-8.934 19.954-19.954c0-11.021-8.935-19.954-19.954-19.954z" fill="#e1e6e9"/><path d="m207.763 144.404c-7.88.001-14.267 6.39-14.267 14.27.001 7.88 6.389 14.267 14.27 14.267 7.801-.001 14.156-6.268 14.265-14.068.11-7.879-6.188-14.356-14.067-14.466-.068-.001-.135-.003-.201-.003z" fill="#e56353"/><path d="m180.373 338.266h56.771v79.22h-56.771z" fill="#3a556a"/></g></g></svg>